<?xml version="1.0" encoding="UTF-8" standalone="no"?>
<!DOCTYPE svg PUBLIC "-//W3C//DTD SVG 1.1//EN"
 "http://www.w3.org/Graphics/SVG/1.1/DTD/svg11.dtd">
<!-- Generated by graphviz version 2.38.0 (20140413.2041)
 -->
<!-- Title: foss4gSym Pages: 1 -->
<svg width="432pt" height="20pt"
 viewBox="0.00 0.00 432.00 19.74" xmlns="http://www.w3.org/2000/svg" xmlns:xlink="http://www.w3.org/1999/xlink">
<g id="graph0" class="graph" transform="scale(0.365605 0.365605) rotate(0) translate(4 50)">
<title>foss4gSym</title>
<polygon fill="white" stroke="none" points="-4,4 -4,-50 1177.6,-50 1177.6,4 -4,4"/>
<!-- Applications -->
<g id="node1" class="node"><title>Applications</title>
<polygon fill="red" stroke="red" points="194.031,-41 -0.0102872,-41 55.9723,-5 138.048,-5 194.031,-41"/>
<text text-anchor="middle" x="97.0103" y="-19.3" font-family="Times New Roman,serif" font-size="14.00">Applications</text>
</g>
<!-- Extensions/Plugin -->
<g id="node2" class="node"><title>Extensions/Plugin</title>
<ellipse fill="orange" stroke="orange" cx="287.01" cy="-23" rx="75.2868" ry="18"/>
<text text-anchor="middle" x="287.01" y="-19.3" font-family="Times New Roman,serif" font-size="14.00">Extensions/Plugin</text>
</g>
<!-- Service -->
<g id="node3" class="node"><title>Service</title>
<ellipse fill="lightblue" stroke="lightblue" cx="418.01" cy="-23" rx="37.8943" ry="18"/>
<text text-anchor="middle" x="418.01" y="-19.3" font-family="Times New Roman,serif" font-size="14.00">Service</text>
</g>
<!-- OCG/Standard -->
<g id="node4" class="node"><title>OCG/Standard</title>
<polygon fill="green" stroke="green" points="605.01,-46 473.933,-11.5 736.087,-11.5 605.01,-46"/>
<text text-anchor="middle" x="605.01" y="-19.3" font-family="Times New Roman,serif" font-size="14.00">OCG/Standard</text>
</g>
<!-- Library -->
<g id="node5" class="node"><title>Library</title>
<ellipse fill="lightblue" stroke="lightblue" cx="791.01" cy="-23" rx="37.0935" ry="18"/>
<text text-anchor="middle" x="791.01" y="-19.3" font-family="Times New Roman,serif" font-size="14.00">Library</text>
</g>
<!-- Commandline Tool -->
<g id="node6" class="node"><title>Commandline Tool</title>
<ellipse fill="lightblue" stroke="lightblue" cx="927.01" cy="-23" rx="81.4863" ry="18"/>
<text text-anchor="middle" x="927.01" y="-19.3" font-family="Times New Roman,serif" font-size="14.00">Commandline Tool</text>
</g>
<!-- GeoData -->
<g id="node7" class="node"><title>GeoData</title>
<polygon fill="green" stroke="green" points="1131.18,-41 1068.84,-41 1026.32,-5 1173.7,-5 1131.18,-41"/>
<text text-anchor="middle" x="1100.01" y="-19.3" font-family="Times New Roman,serif" font-size="14.00">GeoData</text>
</g>
</g>
</svg>
