<?xml version="1.0" encoding="UTF-8" standalone="no"?>
<!DOCTYPE svg PUBLIC "-//W3C//DTD SVG 1.1//EN"
 "http://www.w3.org/Graphics/SVG/1.1/DTD/svg11.dtd">
<!-- Generated by graphviz version 2.38.0 (20140413.2041)
 -->
<!-- Title: foss4g Pages: 1 -->
<svg width="432pt" height="372pt"
 viewBox="0.00 0.00 432.00 371.63" xmlns="http://www.w3.org/2000/svg" xmlns:xlink="http://www.w3.org/1999/xlink">
<g id="graph0" class="graph" transform="scale(0.580674 0.580674) rotate(0) translate(4 636)">
<title>foss4g</title>
<polygon fill="white" stroke="none" points="-4,4 -4,-636 739.963,-636 739.963,4 -4,4"/>
<!-- Browser -->
<g id="node1" class="node"><title>Browser</title>
<polygon fill="red" stroke="red" points="221.627,-632 79.1714,-632 120.271,-596 180.528,-596 221.627,-632"/>
<text text-anchor="middle" x="150.399" y="-610.3" font-family="Times New Roman,serif" font-size="14.00">Browser</text>
</g>
<!-- OpenLayers -->
<g id="node2" class="node"><title>OpenLayers</title>
<ellipse fill="blue" stroke="blue" cx="150.399" cy="-542" rx="55.4913" ry="18"/>
<text text-anchor="middle" x="150.399" y="-538.3" font-family="Times New Roman,serif" font-size="14.00">OpenLayers</text>
</g>
<!-- Browser&#45;&gt;OpenLayers -->
<g id="edge1" class="edge"><title>Browser&#45;&gt;OpenLayers</title>
<path fill="none" stroke="black" d="M150.399,-595.697C150.399,-587.983 150.399,-578.712 150.399,-570.112"/>
<polygon fill="black" stroke="black" points="153.9,-570.104 150.399,-560.104 146.9,-570.104 153.9,-570.104"/>
</g>
<!-- WMS -->
<g id="node7" class="node"><title>WMS</title>
<polygon fill="green" stroke="green" points="196.399,-488 131.411,-453.5 261.388,-453.5 196.399,-488"/>
<text text-anchor="middle" x="196.399" y="-461.3" font-family="Times New Roman,serif" font-size="14.00">WMS</text>
</g>
<!-- OpenLayers&#45;&gt;WMS -->
<g id="edge11" class="edge"><title>OpenLayers&#45;&gt;WMS</title>
<path fill="none" stroke="black" d="M160.838,-523.981C166.76,-514.325 174.286,-502.054 180.888,-491.29"/>
<polygon fill="black" stroke="black" points="183.916,-493.047 186.161,-482.693 177.949,-489.387 183.916,-493.047"/>
</g>
<!-- WMTS -->
<g id="node8" class="node"><title>WMTS</title>
<polygon fill="green" stroke="green" points="152.399,-334 75.5126,-299.5 229.286,-299.5 152.399,-334"/>
<text text-anchor="middle" x="152.399" y="-307.3" font-family="Times New Roman,serif" font-size="14.00">WMTS</text>
</g>
<!-- OpenLayers&#45;&gt;WMTS -->
<g id="edge12" class="edge"><title>OpenLayers&#45;&gt;WMTS</title>
<path fill="none" stroke="black" d="M138.803,-524.197C132.605,-514.179 125.605,-500.929 122.399,-488 109.78,-437.097 110.001,-420.958 122.399,-370 125.121,-358.814 130.404,-347.377 135.788,-337.647"/>
<polygon fill="black" stroke="black" points="138.873,-339.305 140.9,-328.906 132.83,-335.771 138.873,-339.305"/>
</g>
<!-- QGIS -->
<g id="node3" class="node"><title>QGIS</title>
<polygon fill="red" stroke="red" points="487.907,-560 376.892,-560 408.921,-524 455.878,-524 487.907,-560"/>
<text text-anchor="middle" x="432.399" y="-538.3" font-family="Times New Roman,serif" font-size="14.00">QGIS</text>
</g>
<!-- POSTGIS -->
<g id="node4" class="node"><title>POSTGIS</title>
<ellipse fill="orange" stroke="orange" cx="451.399" cy="-162" rx="49.2915" ry="18"/>
<text text-anchor="middle" x="451.399" y="-158.3" font-family="Times New Roman,serif" font-size="14.00">POSTGIS</text>
</g>
<!-- QGIS&#45;&gt;POSTGIS -->
<g id="edge2" class="edge"><title>QGIS&#45;&gt;POSTGIS</title>
<path fill="none" stroke="black" d="M435.973,-523.763C441.477,-495.67 451.399,-438.199 451.399,-389 451.399,-389 451.399,-389 451.399,-310 451.399,-268.361 451.399,-220.088 451.399,-190.55"/>
<polygon fill="black" stroke="black" points="454.9,-190.2 451.399,-180.2 447.9,-190.2 454.9,-190.2"/>
</g>
<!-- PGROUTING -->
<g id="node5" class="node"><title>PGROUTING</title>
<ellipse fill="orange" stroke="orange" cx="646.399" cy="-311" rx="64.189" ry="18"/>
<text text-anchor="middle" x="646.399" y="-307.3" font-family="Times New Roman,serif" font-size="14.00">PGROUTING</text>
</g>
<!-- QGIS&#45;&gt;PGROUTING -->
<g id="edge3" class="edge"><title>QGIS&#45;&gt;PGROUTING</title>
<path fill="none" stroke="black" d="M468.73,-538.135C536.494,-530.522 679.87,-503.118 730.399,-406 737.784,-391.806 737.834,-384.168 730.399,-370 721.726,-353.471 705.97,-340.725 690.428,-331.447"/>
<polygon fill="black" stroke="black" points="691.795,-328.202 681.357,-326.383 688.382,-334.314 691.795,-328.202"/>
</g>
<!-- SHP File -->
<g id="node6" class="node"><title>SHP File</title>
<polygon fill="green" stroke="green" points="325.089,-180 261.71,-180 218.481,-144 368.318,-144 325.089,-180"/>
<text text-anchor="middle" x="293.399" y="-158.3" font-family="Times New Roman,serif" font-size="14.00">SHP File</text>
</g>
<!-- QGIS&#45;&gt;SHP File -->
<g id="edge4" class="edge"><title>QGIS&#45;&gt;SHP File</title>
<path fill="none" stroke="black" d="M428.826,-523.763C423.322,-495.67 413.399,-438.199 413.399,-389 413.399,-389 413.399,-389 413.399,-310 413.399,-267.377 419.973,-250.098 394.399,-216 381.339,-198.585 360.871,-186.354 341.767,-178.065"/>
<polygon fill="black" stroke="black" points="342.824,-174.717 332.242,-174.196 340.19,-181.203 342.824,-174.717"/>
</g>
<!-- QGIS&#45;&gt;WMS -->
<g id="edge5" class="edge"><title>QGIS&#45;&gt;WMS</title>
<path fill="none" stroke="black" d="M402.03,-531.349C358.537,-517.527 278.656,-492.141 232.297,-477.408"/>
<polygon fill="black" stroke="black" points="233.252,-474.039 222.661,-474.346 231.131,-480.71 233.252,-474.039"/>
</g>
<!-- QGIS&#45;&gt;WMTS -->
<g id="edge6" class="edge"><title>QGIS&#45;&gt;WMTS</title>
<path fill="none" stroke="black" d="M414.616,-523.916C381.238,-492.179 306.431,-422.572 238.399,-370 220.244,-355.97 198.859,-341.54 181.956,-330.582"/>
<polygon fill="black" stroke="black" points="183.38,-327.337 173.075,-324.876 179.596,-333.226 183.38,-327.337"/>
</g>
<!-- Spatialite -->
<g id="node9" class="node"><title>Spatialite</title>
<ellipse fill="lightblue" stroke="lightblue" cx="560.399" cy="-465" rx="43.5923" ry="18"/>
<text text-anchor="middle" x="560.399" y="-461.3" font-family="Times New Roman,serif" font-size="14.00">Spatialite</text>
</g>
<!-- QGIS&#45;&gt;Spatialite -->
<g id="edge7" class="edge"><title>QGIS&#45;&gt;Spatialite</title>
<path fill="none" stroke="black" d="M457.995,-526.003C477.912,-514.333 505.703,-498.049 527.309,-485.389"/>
<polygon fill="black" stroke="black" points="529.291,-488.284 536.15,-480.209 525.752,-482.245 529.291,-488.284"/>
</g>
<!-- osm2pgsql -->
<g id="node15" class="node"><title>osm2pgsql</title>
<ellipse fill="lightblue" stroke="lightblue" cx="390.399" cy="-90" rx="50.8918" ry="18"/>
<text text-anchor="middle" x="390.399" y="-86.3" font-family="Times New Roman,serif" font-size="14.00">osm2pgsql</text>
</g>
<!-- POSTGIS&#45;&gt;osm2pgsql -->
<g id="edge16" class="edge"><title>POSTGIS&#45;&gt;osm2pgsql</title>
<path fill="none" stroke="black" stroke-dasharray="1,5" d="M436.943,-144.411C429.346,-135.693 419.893,-124.845 411.495,-115.208"/>
<polygon fill="black" stroke="black" points="413.96,-112.71 404.752,-107.47 408.683,-117.309 413.96,-112.71"/>
</g>
<!-- POSTGRES -->
<g id="node16" class="node"><title>POSTGRES</title>
<ellipse fill="lightblue" stroke="lightblue" cx="517.399" cy="-90" rx="57.6901" ry="18"/>
<text text-anchor="middle" x="517.399" y="-86.3" font-family="Times New Roman,serif" font-size="14.00">POSTGRES</text>
</g>
<!-- POSTGIS&#45;&gt;POSTGRES -->
<g id="edge18" class="edge"><title>POSTGIS&#45;&gt;POSTGRES</title>
<path fill="none" stroke="black" d="M466.707,-144.765C475,-135.969 485.41,-124.928 494.635,-115.144"/>
<polygon fill="black" stroke="black" points="497.403,-117.31 501.717,-107.633 492.31,-112.508 497.403,-117.31"/>
</g>
<!-- PGROUTING&#45;&gt;POSTGIS -->
<g id="edge15" class="edge"><title>PGROUTING&#45;&gt;POSTGIS</title>
<path fill="none" stroke="black" d="M625.16,-293.989C590.104,-267.562 520.079,-214.774 480.463,-184.909"/>
<polygon fill="black" stroke="black" points="482.116,-181.773 472.024,-178.548 477.903,-187.362 482.116,-181.773"/>
</g>
<!-- osm2shp -->
<g id="node13" class="node"><title>osm2shp</title>
<ellipse fill="lightblue" stroke="lightblue" cx="277.399" cy="-90" rx="44.393" ry="18"/>
<text text-anchor="middle" x="277.399" y="-86.3" font-family="Times New Roman,serif" font-size="14.00">osm2shp</text>
</g>
<!-- SHP File&#45;&gt;osm2shp -->
<g id="edge13" class="edge"><title>SHP File&#45;&gt;osm2shp</title>
<path fill="none" stroke="black" stroke-dasharray="1,5" d="M289.444,-143.697C287.681,-135.983 285.562,-126.712 283.597,-118.112"/>
<polygon fill="black" stroke="black" points="286.949,-117.073 281.309,-108.104 280.125,-118.633 286.949,-117.073"/>
</g>
<!-- OpenData -->
<g id="node21" class="node"><title>OpenData</title>
<polygon fill="green" stroke="green" points="115.787,-108 47.0114,-108 0.10044,-72 162.698,-72 115.787,-108"/>
<text text-anchor="middle" x="81.3994" y="-86.3" font-family="Times New Roman,serif" font-size="14.00">OpenData</text>
</g>
<!-- SHP File&#45;&gt;OpenData -->
<g id="edge31" class="edge"><title>SHP File&#45;&gt;OpenData</title>
<path fill="none" stroke="black" d="M241.809,-143.966C208.009,-132.805 164.082,-118.301 130.744,-107.293"/>
<polygon fill="black" stroke="black" points="131.794,-103.954 121.201,-104.142 129.599,-110.601 131.794,-103.954"/>
</g>
<!-- mapnik -->
<g id="node17" class="node"><title>mapnik</title>
<ellipse fill="lightblue" stroke="lightblue" cx="190.399" cy="-234" rx="37.0935" ry="18"/>
<text text-anchor="middle" x="190.399" y="-230.3" font-family="Times New Roman,serif" font-size="14.00">mapnik</text>
</g>
<!-- WMS&#45;&gt;mapnik -->
<g id="edge20" class="edge"><title>WMS&#45;&gt;mapnik</title>
<path fill="none" stroke="black" d="M207.49,-453.224C217.765,-442.4 232.344,-424.686 238.399,-406 254.566,-356.11 257.265,-336.934 238.399,-288 233.909,-276.354 225.542,-265.68 217.035,-257.011"/>
<polygon fill="black" stroke="black" points="219.27,-254.306 209.618,-249.936 214.438,-259.371 219.27,-254.306"/>
</g>
<!-- GeoServer -->
<g id="node18" class="node"><title>GeoServer</title>
<ellipse fill="lightblue" stroke="lightblue" cx="335.399" cy="-311" rx="50.0912" ry="18"/>
<text text-anchor="middle" x="335.399" y="-307.3" font-family="Times New Roman,serif" font-size="14.00">GeoServer</text>
</g>
<!-- WMS&#45;&gt;GeoServer -->
<g id="edge21" class="edge"><title>WMS&#45;&gt;GeoServer</title>
<path fill="none" stroke="black" d="M213.121,-453.334C229.183,-442.592 253.574,-424.938 271.399,-406 291.141,-385.026 309.168,-357.428 321.022,-337.568"/>
<polygon fill="black" stroke="black" points="324.14,-339.17 326.172,-328.772 318.099,-335.634 324.14,-339.17"/>
</g>
<!-- MapProxy -->
<g id="node19" class="node"><title>MapProxy</title>
<ellipse fill="lightblue" stroke="lightblue" cx="180.399" cy="-388" rx="49.2915" ry="18"/>
<text text-anchor="middle" x="180.399" y="-384.3" font-family="Times New Roman,serif" font-size="14.00">MapProxy</text>
</g>
<!-- WMS&#45;&gt;MapProxy -->
<g id="edge22" class="edge"><title>WMS&#45;&gt;MapProxy</title>
<path fill="none" stroke="black" d="M189.206,-453.254C185.49,-443.635 181.851,-429.114 179.702,-416.308"/>
<polygon fill="black" stroke="black" points="183.126,-415.521 178.278,-406.101 176.193,-416.488 183.126,-415.521"/>
</g>
<!-- WMS&#45;&gt;OpenData -->
<g id="edge33" class="edge"><title>WMS&#45;&gt;OpenData</title>
<path fill="none" stroke="black" d="M172.79,-453.392C130.776,-432.714 47.3994,-382.765 47.3994,-312 47.3994,-312 47.3994,-312 47.3994,-233 47.3994,-191.91 61.0306,-145.925 71.0309,-117.717"/>
<polygon fill="black" stroke="black" points="74.3743,-118.765 74.519,-108.171 67.7995,-116.362 74.3743,-118.765"/>
</g>
<!-- WMTS&#45;&gt;mapnik -->
<g id="edge19" class="edge"><title>WMTS&#45;&gt;mapnik</title>
<path fill="none" stroke="black" d="M157.844,-299.254C162.897,-289.281 170.62,-274.039 177.275,-260.903"/>
<polygon fill="black" stroke="black" points="180.482,-262.318 181.88,-251.815 174.238,-259.154 180.482,-262.318"/>
</g>
<!-- WMTS&#45;&gt;MapProxy -->
<g id="edge24" class="edge"><title>WMTS&#45;&gt;MapProxy</title>
<path fill="none" stroke="black" d="M164.357,-328.693C168.859,-338.002 173.524,-349.815 176.949,-360.37"/>
<polygon fill="black" stroke="black" points="173.602,-361.394 179.807,-369.981 180.311,-359.399 173.602,-361.394"/>
</g>
<!-- WMTS&#45;&gt;OpenData -->
<g id="edge32" class="edge"><title>WMTS&#45;&gt;OpenData</title>
<path fill="none" stroke="black" d="M148.975,-299.437C138.368,-266.721 105.832,-166.361 90.0983,-117.832"/>
<polygon fill="black" stroke="black" points="93.3352,-116.467 86.9217,-108.034 86.6764,-118.626 93.3352,-116.467"/>
</g>
<!-- GEOS -->
<g id="node10" class="node"><title>GEOS</title>
<ellipse fill="lightblue" stroke="lightblue" cx="686.399" cy="-388" rx="35.194" ry="18"/>
<text text-anchor="middle" x="686.399" y="-384.3" font-family="Times New Roman,serif" font-size="14.00">GEOS</text>
</g>
<!-- Spatialite&#45;&gt;GEOS -->
<g id="edge8" class="edge"><title>Spatialite&#45;&gt;GEOS</title>
<path fill="none" stroke="black" d="M584.099,-449.893C604.274,-437.884 633.402,-420.546 655.421,-407.44"/>
<polygon fill="black" stroke="black" points="657.272,-410.411 664.075,-402.288 653.692,-404.396 657.272,-410.411"/>
</g>
<!-- Proj.4 -->
<g id="node11" class="node"><title>Proj.4</title>
<ellipse fill="lightblue" stroke="lightblue" cx="511.399" cy="-388" rx="32.4942" ry="18"/>
<text text-anchor="middle" x="511.399" y="-384.3" font-family="Times New Roman,serif" font-size="14.00">Proj.4</text>
</g>
<!-- Spatialite&#45;&gt;Proj.4 -->
<g id="edge9" class="edge"><title>Spatialite&#45;&gt;Proj.4</title>
<path fill="none" stroke="black" d="M549.525,-447.355C543.028,-437.412 534.658,-424.6 527.416,-413.515"/>
<polygon fill="black" stroke="black" points="530.307,-411.541 521.907,-405.084 524.447,-415.37 530.307,-411.541"/>
</g>
<!-- Sqlite3 -->
<g id="node12" class="node"><title>Sqlite3</title>
<ellipse fill="lightblue" stroke="lightblue" cx="597.399" cy="-388" rx="35.9954" ry="18"/>
<text text-anchor="middle" x="597.399" y="-384.3" font-family="Times New Roman,serif" font-size="14.00">Sqlite3</text>
</g>
<!-- Spatialite&#45;&gt;Sqlite3 -->
<g id="edge10" class="edge"><title>Spatialite&#45;&gt;Sqlite3</title>
<path fill="none" stroke="black" d="M568.795,-446.981C573.464,-437.518 579.371,-425.544 584.604,-414.938"/>
<polygon fill="black" stroke="black" points="587.879,-416.21 589.164,-405.693 581.601,-413.113 587.879,-416.21"/>
</g>
<!-- OSM -->
<g id="node14" class="node"><title>OSM</title>
<polygon fill="green" stroke="green" points="299.528,-36 255.271,-36 225.084,-1.42109e-014 329.715,-3.55271e-015 299.528,-36"/>
<text text-anchor="middle" x="277.399" y="-14.3" font-family="Times New Roman,serif" font-size="14.00">OSM</text>
</g>
<!-- osm2shp&#45;&gt;OSM -->
<g id="edge14" class="edge"><title>osm2shp&#45;&gt;OSM</title>
<path fill="none" stroke="black" d="M277.399,-71.6966C277.399,-63.9827 277.399,-54.7125 277.399,-46.1124"/>
<polygon fill="black" stroke="black" points="280.9,-46.1043 277.399,-36.1043 273.9,-46.1044 280.9,-46.1043"/>
</g>
<!-- osm2pgsql&#45;&gt;OSM -->
<g id="edge17" class="edge"><title>osm2pgsql&#45;&gt;OSM</title>
<path fill="none" stroke="black" d="M366.158,-73.9832C349.922,-63.9257 328.342,-50.5573 310.526,-39.5209"/>
<polygon fill="black" stroke="black" points="311.945,-36.2827 301.601,-33.9919 308.259,-42.2335 311.945,-36.2827"/>
</g>
<!-- mapnik&#45;&gt;POSTGIS -->
<g id="edge27" class="edge"><title>mapnik&#45;&gt;POSTGIS</title>
<path fill="none" stroke="black" d="M222.142,-224.487C267.195,-212.404 350.065,-190.178 402.862,-176.018"/>
<polygon fill="black" stroke="black" points="403.926,-179.356 412.678,-173.385 402.112,-172.595 403.926,-179.356"/>
</g>
<!-- mapnik&#45;&gt;SHP File -->
<g id="edge28" class="edge"><title>mapnik&#45;&gt;SHP File</title>
<path fill="none" stroke="black" d="M211.243,-218.834C225.131,-209.396 243.694,-196.78 259.662,-185.929"/>
<polygon fill="black" stroke="black" points="261.916,-188.628 268.219,-180.113 257.981,-182.839 261.916,-188.628"/>
</g>
<!-- mapnik&#45;&gt;OSM -->
<g id="edge26" class="edge"><title>mapnik&#45;&gt;OSM</title>
<path fill="none" stroke="black" d="M190.856,-215.929C192.332,-185.29 198.531,-119.718 224.399,-72 230.203,-61.2939 238.847,-51.3324 247.478,-43.002"/>
<polygon fill="black" stroke="black" points="249.978,-45.4586 254.988,-36.1234 245.25,-40.2966 249.978,-45.4586"/>
</g>
<!-- GeoServer&#45;&gt;SHP File -->
<g id="edge29" class="edge"><title>GeoServer&#45;&gt;SHP File</title>
<path fill="none" stroke="black" d="M311.993,-295.068C298.228,-284.818 282.063,-269.861 274.399,-252 265.832,-232.031 271.953,-207.831 279.454,-189.709"/>
<polygon fill="black" stroke="black" points="282.762,-190.888 283.678,-180.333 276.38,-188.013 282.762,-190.888"/>
</g>
<!-- MapProxy&#45;&gt;WMS -->
<g id="edge23" class="edge"><title>MapProxy&#45;&gt;WMS</title>
<path fill="none" stroke="black" d="M189.725,-405.815C193.274,-416.814 196.488,-431.268 198.054,-443.018"/>
<polygon fill="black" stroke="black" points="194.595,-443.622 199.008,-453.254 201.565,-442.973 194.595,-443.622"/>
</g>
<!-- MapProxy&#45;&gt;WMTS -->
<g id="edge25" class="edge"><title>MapProxy&#45;&gt;WMTS</title>
<path fill="none" stroke="black" d="M168.465,-370.355C164.6,-362.369 160.613,-352.532 157.392,-343.225"/>
<polygon fill="black" stroke="black" points="160.639,-341.892 154.239,-333.448 153.977,-344.04 160.639,-341.892"/>
</g>
<!-- MapServer -->
<g id="node20" class="node"><title>MapServer</title>
<ellipse fill="lightblue" stroke="lightblue" cx="334.399" cy="-234" rx="50.8918" ry="18"/>
<text text-anchor="middle" x="334.399" y="-230.3" font-family="Times New Roman,serif" font-size="14.00">MapServer</text>
</g>
<!-- MapServer&#45;&gt;SHP File -->
<g id="edge30" class="edge"><title>MapServer&#45;&gt;SHP File</title>
<path fill="none" stroke="black" d="M324.474,-216.055C319.711,-207.922 313.898,-197.998 308.594,-188.943"/>
<polygon fill="black" stroke="black" points="311.592,-187.135 303.518,-180.275 305.552,-190.673 311.592,-187.135"/>
</g>
</g>
</svg>
