<?xml version="1.0" encoding="UTF-8" standalone="no"?>
<!DOCTYPE svg PUBLIC "-//W3C//DTD SVG 1.1//EN"
 "http://www.w3.org/Graphics/SVG/1.1/DTD/svg11.dtd">
<!-- Generated by graphviz version 2.38.0 (20140413.2041)
 -->
<!-- Title: foss4gSym Pages: 1 -->
<svg width="432pt" height="18pt"
 viewBox="0.00 0.00 432.00 18.40" xmlns="http://www.w3.org/2000/svg" xmlns:xlink="http://www.w3.org/1999/xlink">
<g id="graph0" class="graph" transform="scale(0.3408 0.3408) rotate(0) translate(4 50)">
<title>foss4gSym</title>
<polygon fill="white" stroke="none" points="-4,4 -4,-50 1263.6,-50 1263.6,4 -4,4"/>
<!-- Applications -->
<g id="node1" class="node"><title>Applications</title>
<polygon fill="red" stroke="red" points="194.031,-41 -0.0102872,-41 55.9723,-5 138.048,-5 194.031,-41"/>
<text text-anchor="middle" x="97.0103" y="-19.3" font-family="Times New Roman,serif" font-size="14.00">Applications</text>
</g>
<!-- Database -->
<g id="node2" class="node"><title>Database</title>
<polygon fill="yellow" stroke="yellow" points="280.01,-41 212.01,-41 212.01,-5 280.01,-5 280.01,-41"/>
<text text-anchor="middle" x="246.01" y="-19.3" font-family="Times New Roman,serif" font-size="14.00">Database</text>
</g>
<!-- Extensions/Plugin -->
<g id="node3" class="node"><title>Extensions/Plugin</title>
<ellipse fill="orange" stroke="orange" cx="373.01" cy="-23" rx="75.2868" ry="18"/>
<text text-anchor="middle" x="373.01" y="-19.3" font-family="Times New Roman,serif" font-size="14.00">Extensions/Plugin</text>
</g>
<!-- Service -->
<g id="node4" class="node"><title>Service</title>
<ellipse fill="lightblue" stroke="lightblue" cx="504.01" cy="-23" rx="37.8943" ry="18"/>
<text text-anchor="middle" x="504.01" y="-19.3" font-family="Times New Roman,serif" font-size="14.00">Service</text>
</g>
<!-- OCG/Standard -->
<g id="node5" class="node"><title>OCG/Standard</title>
<polygon fill="green" stroke="green" points="691.01,-46 559.933,-11.5 822.087,-11.5 691.01,-46"/>
<text text-anchor="middle" x="691.01" y="-19.3" font-family="Times New Roman,serif" font-size="14.00">OCG/Standard</text>
</g>
<!-- Library -->
<g id="node6" class="node"><title>Library</title>
<ellipse fill="lightblue" stroke="lightblue" cx="877.01" cy="-23" rx="37.0935" ry="18"/>
<text text-anchor="middle" x="877.01" y="-19.3" font-family="Times New Roman,serif" font-size="14.00">Library</text>
</g>
<!-- Commandline Tool -->
<g id="node7" class="node"><title>Commandline Tool</title>
<ellipse fill="lightblue" stroke="lightblue" cx="1013.01" cy="-23" rx="81.4863" ry="18"/>
<text text-anchor="middle" x="1013.01" y="-19.3" font-family="Times New Roman,serif" font-size="14.00">Commandline Tool</text>
</g>
<!-- GeoData -->
<g id="node8" class="node"><title>GeoData</title>
<polygon fill="green" stroke="green" points="1217.18,-41 1154.84,-41 1112.32,-5 1259.7,-5 1217.18,-41"/>
<text text-anchor="middle" x="1186.01" y="-19.3" font-family="Times New Roman,serif" font-size="14.00">GeoData</text>
</g>
</g>
</svg>
