<?xml version="1.0" encoding="UTF-8" standalone="no"?>
<!DOCTYPE svg PUBLIC "-//W3C//DTD SVG 1.1//EN"
 "http://www.w3.org/Graphics/SVG/1.1/DTD/svg11.dtd">
<!-- Generated by graphviz version 2.38.0 (20140413.2041)
 -->
<!-- Title: foss4g Pages: 1 -->
<svg width="432pt" height="424pt"
 viewBox="0.00 0.00 432.00 423.91" xmlns="http://www.w3.org/2000/svg" xmlns:xlink="http://www.w3.org/1999/xlink">
<g id="graph0" class="graph" transform="scale(0.662365 0.662365) rotate(0) translate(4 636)">
<title>foss4g</title>
<polygon fill="white" stroke="none" points="-4,4 -4,-636 648.209,-636 648.209,4 -4,4"/>
<!-- Browser -->
<g id="node1" class="node"><title>Browser</title>
<polygon fill="red" stroke="red" points="142.592,-632 0.135852,-632 41.2357,-596 101.492,-596 142.592,-632"/>
<text text-anchor="middle" x="71.3639" y="-610.3" font-family="Times New Roman,serif" font-size="14.00">Browser</text>
</g>
<!-- OpenLayers -->
<g id="node2" class="node"><title>OpenLayers</title>
<ellipse fill="blue" stroke="blue" cx="71.3639" cy="-542" rx="55.4913" ry="18"/>
<text text-anchor="middle" x="71.3639" y="-538.3" font-family="Times New Roman,serif" font-size="14.00">OpenLayers</text>
</g>
<!-- Browser&#45;&gt;OpenLayers -->
<g id="edge1" class="edge"><title>Browser&#45;&gt;OpenLayers</title>
<path fill="none" stroke="black" d="M71.3639,-595.697C71.3639,-587.983 71.3639,-578.712 71.3639,-570.112"/>
<polygon fill="black" stroke="black" points="74.864,-570.104 71.3639,-560.104 67.864,-570.104 74.864,-570.104"/>
</g>
<!-- WMS -->
<g id="node7" class="node"><title>WMS</title>
<polygon fill="green" stroke="green" points="131.364,-488 66.3754,-453.5 196.352,-453.5 131.364,-488"/>
<text text-anchor="middle" x="131.364" y="-461.3" font-family="Times New Roman,serif" font-size="14.00">WMS</text>
</g>
<!-- OpenLayers&#45;&gt;WMS -->
<g id="edge7" class="edge"><title>OpenLayers&#45;&gt;WMS</title>
<path fill="none" stroke="black" d="M84.6798,-524.355C92.9031,-514.076 103.579,-500.732 112.645,-489.398"/>
<polygon fill="black" stroke="black" points="115.391,-491.569 118.905,-481.574 109.924,-487.196 115.391,-491.569"/>
</g>
<!-- WMTS -->
<g id="node8" class="node"><title>WMTS</title>
<polygon fill="green" stroke="green" points="153.364,-334 76.477,-299.5 230.251,-299.5 153.364,-334"/>
<text text-anchor="middle" x="153.364" y="-307.3" font-family="Times New Roman,serif" font-size="14.00">WMTS</text>
</g>
<!-- OpenLayers&#45;&gt;WMTS -->
<g id="edge8" class="edge"><title>OpenLayers&#45;&gt;WMTS</title>
<path fill="none" stroke="black" d="M65.6857,-524.038C62.5423,-513.745 58.957,-500.269 57.3639,-488 50.5144,-435.25 47.5519,-414.053 77.3639,-370 88.6394,-353.338 106.275,-339.452 121.721,-329.448"/>
<polygon fill="black" stroke="black" points="123.837,-332.255 130.497,-324.015 120.152,-326.303 123.837,-332.255"/>
</g>
<!-- QGIS -->
<g id="node3" class="node"><title>QGIS</title>
<polygon fill="red" stroke="red" points="469.871,-560 358.857,-560 390.885,-524 437.842,-524 469.871,-560"/>
<text text-anchor="middle" x="414.364" y="-538.3" font-family="Times New Roman,serif" font-size="14.00">QGIS</text>
</g>
<!-- POSTGIS -->
<g id="node4" class="node"><title>POSTGIS</title>
<ellipse fill="orange" stroke="orange" cx="532.364" cy="-162" rx="49.2915" ry="18"/>
<text text-anchor="middle" x="532.364" y="-158.3" font-family="Times New Roman,serif" font-size="14.00">POSTGIS</text>
</g>
<!-- QGIS&#45;&gt;POSTGIS -->
<g id="edge2" class="edge"><title>QGIS&#45;&gt;POSTGIS</title>
<path fill="none" stroke="black" d="M442.614,-529.067C487.569,-507.963 570.364,-459.523 570.364,-389 570.364,-389 570.364,-389 570.364,-310 570.364,-266.614 554.656,-218.251 543.438,-189.246"/>
<polygon fill="black" stroke="black" points="546.641,-187.829 539.691,-179.833 540.138,-190.419 546.641,-187.829"/>
</g>
<!-- PGROUTING -->
<g id="node5" class="node"><title>PGROUTING</title>
<ellipse fill="orange" stroke="orange" cx="475.364" cy="-311" rx="64.189" ry="18"/>
<text text-anchor="middle" x="475.364" y="-307.3" font-family="Times New Roman,serif" font-size="14.00">PGROUTING</text>
</g>
<!-- QGIS&#45;&gt;PGROUTING -->
<g id="edge3" class="edge"><title>QGIS&#45;&gt;PGROUTING</title>
<path fill="none" stroke="black" d="M418.949,-523.788C429.484,-484.236 455.487,-386.621 468.172,-339"/>
<polygon fill="black" stroke="black" points="471.617,-339.664 470.809,-329.1 464.853,-337.862 471.617,-339.664"/>
</g>
<!-- SHP File -->
<g id="node6" class="node"><title>SHP File</title>
<polygon fill="green" stroke="green" points="394.053,-180 330.675,-180 287.445,-144 437.283,-144 394.053,-180"/>
<text text-anchor="middle" x="362.364" y="-158.3" font-family="Times New Roman,serif" font-size="14.00">SHP File</text>
</g>
<!-- QGIS&#45;&gt;SHP File -->
<g id="edge4" class="edge"><title>QGIS&#45;&gt;SHP File</title>
<path fill="none" stroke="black" d="M412.743,-523.978C409.75,-493.194 402.967,-426.242 395.364,-370 386.611,-305.252 373.904,-229.509 367.094,-190.039"/>
<polygon fill="black" stroke="black" points="370.534,-189.389 365.378,-180.134 363.637,-190.585 370.534,-189.389"/>
</g>
<!-- QGIS&#45;&gt;WMS -->
<g id="edge5" class="edge"><title>QGIS&#45;&gt;WMS</title>
<path fill="none" stroke="black" d="M382.866,-532.998C342.751,-522.765 271.317,-504.404 210.364,-488 196.67,-484.315 181.672,-480.166 168.458,-476.474"/>
<polygon fill="black" stroke="black" points="169.326,-473.082 158.752,-473.754 167.437,-479.822 169.326,-473.082"/>
</g>
<!-- QGIS&#45;&gt;WMTS -->
<g id="edge6" class="edge"><title>QGIS&#45;&gt;WMTS</title>
<path fill="none" stroke="black" d="M394.746,-523.788C347.821,-482.615 229.183,-378.523 177.76,-333.405"/>
<polygon fill="black" stroke="black" points="179.93,-330.653 170.105,-326.688 175.313,-335.915 179.93,-330.653"/>
</g>
<!-- osm2pgsql -->
<g id="node11" class="node"><title>osm2pgsql</title>
<ellipse fill="lightblue" stroke="lightblue" cx="459.364" cy="-90" rx="50.8918" ry="18"/>
<text text-anchor="middle" x="459.364" y="-86.3" font-family="Times New Roman,serif" font-size="14.00">osm2pgsql</text>
</g>
<!-- POSTGIS&#45;&gt;osm2pgsql -->
<g id="edge12" class="edge"><title>POSTGIS&#45;&gt;osm2pgsql</title>
<path fill="none" stroke="black" stroke-dasharray="1,5" d="M515.433,-144.765C505.943,-135.665 493.947,-124.162 483.489,-114.134"/>
<polygon fill="black" stroke="black" points="485.844,-111.542 476.203,-107.147 480.999,-116.595 485.844,-111.542"/>
</g>
<!-- POSTGRES -->
<g id="node12" class="node"><title>POSTGRES</title>
<ellipse fill="lightblue" stroke="lightblue" cx="586.364" cy="-90" rx="57.6901" ry="18"/>
<text text-anchor="middle" x="586.364" y="-86.3" font-family="Times New Roman,serif" font-size="14.00">POSTGRES</text>
</g>
<!-- POSTGIS&#45;&gt;POSTGRES -->
<g id="edge14" class="edge"><title>POSTGIS&#45;&gt;POSTGRES</title>
<path fill="none" stroke="black" d="M545.161,-144.411C551.722,-135.906 559.848,-125.372 567.145,-115.914"/>
<polygon fill="black" stroke="black" points="569.947,-118.012 573.283,-107.956 564.404,-113.736 569.947,-118.012"/>
</g>
<!-- PGROUTING&#45;&gt;POSTGIS -->
<g id="edge11" class="edge"><title>PGROUTING&#45;&gt;POSTGIS</title>
<path fill="none" stroke="black" d="M488.798,-293.181C497.034,-282.081 507.154,-266.888 513.364,-252 521.613,-232.224 526.454,-208.423 529.183,-190.412"/>
<polygon fill="black" stroke="black" points="532.68,-190.679 530.588,-180.292 525.746,-189.716 532.68,-190.679"/>
</g>
<!-- osm2shp -->
<g id="node9" class="node"><title>osm2shp</title>
<ellipse fill="lightblue" stroke="lightblue" cx="346.364" cy="-90" rx="44.393" ry="18"/>
<text text-anchor="middle" x="346.364" y="-86.3" font-family="Times New Roman,serif" font-size="14.00">osm2shp</text>
</g>
<!-- SHP File&#45;&gt;osm2shp -->
<g id="edge9" class="edge"><title>SHP File&#45;&gt;osm2shp</title>
<path fill="none" stroke="black" stroke-dasharray="1,5" d="M358.409,-143.697C356.646,-135.983 354.527,-126.712 352.561,-118.112"/>
<polygon fill="black" stroke="black" points="355.914,-117.073 350.273,-108.104 349.09,-118.633 355.914,-117.073"/>
</g>
<!-- OpenData -->
<g id="node17" class="node"><title>OpenData</title>
<polygon fill="green" stroke="green" points="184.752,-108 115.976,-108 69.0649,-72 231.663,-72 184.752,-108"/>
<text text-anchor="middle" x="150.364" y="-86.3" font-family="Times New Roman,serif" font-size="14.00">OpenData</text>
</g>
<!-- SHP File&#45;&gt;OpenData -->
<g id="edge27" class="edge"><title>SHP File&#45;&gt;OpenData</title>
<path fill="none" stroke="black" d="M310.774,-143.966C276.974,-132.805 233.047,-118.301 199.708,-107.293"/>
<polygon fill="black" stroke="black" points="200.758,-103.954 190.165,-104.142 198.563,-110.601 200.758,-103.954"/>
</g>
<!-- mapnik -->
<g id="node13" class="node"><title>mapnik</title>
<ellipse fill="lightblue" stroke="lightblue" cx="259.364" cy="-234" rx="37.0935" ry="18"/>
<text text-anchor="middle" x="259.364" y="-230.3" font-family="Times New Roman,serif" font-size="14.00">mapnik</text>
</g>
<!-- WMS&#45;&gt;mapnik -->
<g id="edge16" class="edge"><title>WMS&#45;&gt;mapnik</title>
<path fill="none" stroke="black" d="M144.62,-453.299C157.837,-442.257 178.286,-424.134 193.364,-406 217.641,-376.801 225.14,-369.209 239.364,-334 248.773,-310.71 253.914,-282.485 256.618,-262.141"/>
<polygon fill="black" stroke="black" points="260.117,-262.36 257.85,-252.01 253.168,-261.514 260.117,-262.36"/>
</g>
<!-- GeoServer -->
<g id="node14" class="node"><title>GeoServer</title>
<ellipse fill="lightblue" stroke="lightblue" cx="336.364" cy="-388" rx="50.0912" ry="18"/>
<text text-anchor="middle" x="336.364" y="-384.3" font-family="Times New Roman,serif" font-size="14.00">GeoServer</text>
</g>
<!-- WMS&#45;&gt;GeoServer -->
<g id="edge17" class="edge"><title>WMS&#45;&gt;GeoServer</title>
<path fill="none" stroke="black" d="M160.301,-453.413C194.865,-440.768 253.019,-419.492 292.971,-404.875"/>
<polygon fill="black" stroke="black" points="294.271,-408.127 302.459,-401.404 291.866,-401.553 294.271,-408.127"/>
</g>
<!-- MapProxy -->
<g id="node15" class="node"><title>MapProxy</title>
<ellipse fill="lightblue" stroke="lightblue" cx="135.364" cy="-388" rx="49.2915" ry="18"/>
<text text-anchor="middle" x="135.364" y="-384.3" font-family="Times New Roman,serif" font-size="14.00">MapProxy</text>
</g>
<!-- WMS&#45;&gt;MapProxy -->
<g id="edge18" class="edge"><title>WMS&#45;&gt;MapProxy</title>
<path fill="none" stroke="black" d="M127.036,-453.254C125.885,-443.635 126.118,-429.114 127.384,-416.308"/>
<polygon fill="black" stroke="black" points="130.893,-416.462 128.682,-406.101 123.949,-415.579 130.893,-416.462"/>
</g>
<!-- WMS&#45;&gt;OpenData -->
<g id="edge29" class="edge"><title>WMS&#45;&gt;OpenData</title>
<path fill="none" stroke="black" d="M118.468,-453.281C106.268,-442.499 88.2492,-424.816 77.3639,-406 55.4704,-368.156 48.3639,-355.721 48.3639,-312 48.3639,-312 48.3639,-312 48.3639,-233 48.3639,-183.821 89.2208,-140.013 119.218,-114.477"/>
<polygon fill="black" stroke="black" points="121.483,-117.145 126.963,-108.078 117.025,-111.749 121.483,-117.145"/>
</g>
<!-- WMTS&#45;&gt;mapnik -->
<g id="edge15" class="edge"><title>WMTS&#45;&gt;mapnik</title>
<path fill="none" stroke="black" d="M168.551,-299.254C184.78,-287.771 210.88,-269.305 230.943,-255.109"/>
<polygon fill="black" stroke="black" points="232.984,-257.953 239.126,-249.319 228.941,-252.238 232.984,-257.953"/>
</g>
<!-- WMTS&#45;&gt;MapProxy -->
<g id="edge20" class="edge"><title>WMTS&#45;&gt;MapProxy</title>
<path fill="none" stroke="black" d="M154.326,-333.8C152.96,-342.083 150.773,-351.614 148.267,-360.299"/>
<polygon fill="black" stroke="black" points="144.883,-359.392 145.209,-369.981 151.558,-361.5 144.883,-359.392"/>
</g>
<!-- WMTS&#45;&gt;OpenData -->
<g id="edge28" class="edge"><title>WMTS&#45;&gt;OpenData</title>
<path fill="none" stroke="black" d="M153.219,-299.437C152.772,-266.79 151.402,-166.782 150.736,-118.138"/>
<polygon fill="black" stroke="black" points="154.234,-117.985 150.597,-108.034 147.235,-118.081 154.234,-117.985"/>
</g>
<!-- OSM -->
<g id="node10" class="node"><title>OSM</title>
<polygon fill="green" stroke="green" points="368.493,-36 324.235,-36 294.048,-1.42109e-014 398.68,-3.55271e-015 368.493,-36"/>
<text text-anchor="middle" x="346.364" y="-14.3" font-family="Times New Roman,serif" font-size="14.00">OSM</text>
</g>
<!-- osm2shp&#45;&gt;OSM -->
<g id="edge10" class="edge"><title>osm2shp&#45;&gt;OSM</title>
<path fill="none" stroke="black" d="M346.364,-71.6966C346.364,-63.9827 346.364,-54.7125 346.364,-46.1124"/>
<polygon fill="black" stroke="black" points="349.864,-46.1043 346.364,-36.1043 342.864,-46.1044 349.864,-46.1043"/>
</g>
<!-- osm2pgsql&#45;&gt;OSM -->
<g id="edge13" class="edge"><title>osm2pgsql&#45;&gt;OSM</title>
<path fill="none" stroke="black" d="M435.123,-73.9832C418.887,-63.9257 397.306,-50.5573 379.49,-39.5209"/>
<polygon fill="black" stroke="black" points="380.909,-36.2827 370.565,-33.9919 377.223,-42.2335 380.909,-36.2827"/>
</g>
<!-- mapnik&#45;&gt;POSTGIS -->
<g id="edge23" class="edge"><title>mapnik&#45;&gt;POSTGIS</title>
<path fill="none" stroke="black" d="M291.483,-224.764C338.721,-212.652 427.326,-189.933 482.904,-175.682"/>
<polygon fill="black" stroke="black" points="484.062,-178.998 492.879,-173.124 482.323,-172.218 484.062,-178.998"/>
</g>
<!-- mapnik&#45;&gt;SHP File -->
<g id="edge24" class="edge"><title>mapnik&#45;&gt;SHP File</title>
<path fill="none" stroke="black" d="M280.207,-218.834C294.095,-209.396 312.659,-196.78 328.626,-185.929"/>
<polygon fill="black" stroke="black" points="330.88,-188.628 337.184,-180.113 326.946,-182.839 330.88,-188.628"/>
</g>
<!-- mapnik&#45;&gt;OSM -->
<g id="edge22" class="edge"><title>mapnik&#45;&gt;OSM</title>
<path fill="none" stroke="black" d="M259.82,-215.929C261.297,-185.29 267.496,-119.718 293.364,-72 299.168,-61.2939 307.811,-51.3324 316.442,-43.002"/>
<polygon fill="black" stroke="black" points="318.942,-45.4586 323.953,-36.1234 314.214,-40.2966 318.942,-45.4586"/>
</g>
<!-- GeoServer&#45;&gt;SHP File -->
<g id="edge25" class="edge"><title>GeoServer&#45;&gt;SHP File</title>
<path fill="none" stroke="black" d="M338.361,-369.795C342.851,-331.113 353.773,-237.015 359.198,-190.275"/>
<polygon fill="black" stroke="black" points="362.684,-190.6 360.36,-180.264 355.73,-189.793 362.684,-190.6"/>
</g>
<!-- MapProxy&#45;&gt;WMS -->
<g id="edge19" class="edge"><title>MapProxy&#45;&gt;WMS</title>
<path fill="none" stroke="black" d="M140.221,-406.101C140.811,-417.087 140.164,-431.43 138.604,-443.092"/>
<polygon fill="black" stroke="black" points="135.102,-442.803 136.838,-453.254 141.998,-444.001 135.102,-442.803"/>
</g>
<!-- MapProxy&#45;&gt;WMTS -->
<g id="edge21" class="edge"><title>MapProxy&#45;&gt;WMTS</title>
<path fill="none" stroke="black" d="M133.688,-369.981C134.88,-360.97 137.333,-349.683 140.241,-339.468"/>
<polygon fill="black" stroke="black" points="143.641,-340.322 143.272,-329.734 136.957,-338.241 143.641,-340.322"/>
</g>
<!-- MapServer -->
<g id="node16" class="node"><title>MapServer</title>
<ellipse fill="lightblue" stroke="lightblue" cx="453.364" cy="-234" rx="50.8918" ry="18"/>
<text text-anchor="middle" x="453.364" y="-230.3" font-family="Times New Roman,serif" font-size="14.00">MapServer</text>
</g>
<!-- MapServer&#45;&gt;SHP File -->
<g id="edge26" class="edge"><title>MapServer&#45;&gt;SHP File</title>
<path fill="none" stroke="black" d="M433.168,-217.465C421.287,-208.325 406.03,-196.589 392.724,-186.354"/>
<polygon fill="black" stroke="black" points="394.798,-183.534 384.738,-180.211 390.53,-189.082 394.798,-183.534"/>
</g>
</g>
</svg>
